<?xml version="1.0" encoding="iso-8859-1"?>
<!-- Uploaded to: SVG Repo, www.svgrepo.com, Generator: SVG Repo Mixer Tools -->
<svg fill="#000000" height="800px" width="800px" version="1.1" id="Layer_1" xmlns="http://www.w3.org/2000/svg" xmlns:xlink="http://www.w3.org/1999/xlink" 
	 viewBox="0 0 512 512" xml:space="preserve">
<g>
	<g>
		<path d="M481.573,264.637c-0.502-0.501-1.058-0.959-1.656-1.351c-0.588-0.392-1.22-0.73-1.885-1.002
			c-0.654-0.272-1.339-0.479-2.036-0.621c-1.405-0.283-2.843-0.283-4.248,0c-0.697,0.142-1.383,0.349-2.048,0.621
			c-0.655,0.272-1.285,0.61-1.874,1.002c-0.6,0.392-1.156,0.85-1.657,1.351s-0.959,1.057-1.351,1.656
			c-0.403,0.588-0.73,1.22-1.002,1.885c-0.272,0.654-0.49,1.34-0.62,2.037c-0.143,0.697-0.218,1.416-0.218,2.124
			s0.075,1.427,0.218,2.124c0.13,0.697,0.348,1.383,0.62,2.037c0.272,0.664,0.599,1.296,1.002,1.885
			c0.392,0.599,0.85,1.155,1.351,1.656c0.501,0.501,1.057,0.959,1.657,1.351c0.588,0.392,1.219,0.73,1.874,1.002
			c0.664,0.272,1.351,0.479,2.048,0.621c0.697,0.142,1.416,0.218,2.124,0.218c0.707,0,1.427-0.076,2.124-0.218
			c0.697-0.142,1.383-0.349,2.036-0.621c0.664-0.272,1.296-0.61,1.885-1.002c0.599-0.392,1.155-0.85,1.656-1.351
			c2.026-2.026,3.193-4.837,3.193-7.702C484.766,269.474,483.6,266.664,481.573,264.637z"/>
	</g>
</g>
<g>
	<g>
		<path d="M473.871,250.552c6.015,0,10.894-4.877,10.894-10.894v-10.894c0-61.032-23.747-118.432-66.867-161.625
			C374.783,23.954,317.435,0.11,256.418,0c-0.139,0-0.27,0-0.411,0C195.782,0,138.777,23.797,95.47,67.028
			c-44.002,43.923-68.235,102.025-68.235,163.604v171.751c0,23.752,19.002,43.597,42.357,44.237
			c11.877,0.332,23.098-4.051,31.602-12.324c4.807-4.678,8.395-10.256,10.604-16.364c1.703,5.561,2.585,11.385,2.585,17.328v32.485
			c0,23.752,19.002,43.597,42.357,44.237c11.904,0.344,23.098-4.051,31.602-12.324c8.506-8.276,13.189-19.368,13.189-31.233v-17.426
			c17.757,4.339,36.017,6.533,54.468,6.533s36.711-2.194,54.468-6.533v16.747c0,23.752,19.002,43.597,42.357,44.237
			c0.413,0.012,0.825,0.017,1.235,0.017c11.417,0,22.159-4.355,30.367-12.341c8.506-8.276,13.189-19.368,13.189-31.233V435.26
			c0-6.069,0.919-12.012,2.694-17.68c6.035,16.48,21.538,28.544,39.663,29.041c11.89,0.332,23.099-4.051,31.602-12.324
			c8.506-8.276,13.189-19.368,13.189-31.233v-98.042c0-6.017-4.878-10.894-10.894-10.894c-6.015,0-10.894,4.877-10.894,10.894
			v98.042c0,5.933-2.342,11.479-6.596,15.617c-4.25,4.136-9.858,6.314-15.811,6.161c-11.672-0.32-21.168-10.395-21.168-22.458
			v-18.047v-57.53c0-6.017-4.878-10.894-10.894-10.894s-10.894,4.877-10.894,10.894v53.12
			c-13.892,15.127-21.787,35.05-21.787,55.332v33.164c0,5.933-2.342,11.479-6.596,15.617c-4.251,4.136-9.84,6.316-15.811,6.161
			c-11.672-0.32-21.168-10.395-21.168-22.458v-31.089c0-3.469-1.651-6.729-4.448-8.781c-2.794-2.052-6.401-2.651-9.711-1.611
			c-20.026,6.291-40.918,9.481-62.094,9.481s-42.069-3.19-62.097-9.481c-3.313-1.039-6.916-0.44-9.711,1.611
			c-2.796,2.052-4.448,5.313-4.448,8.781v31.769c0,5.933-2.342,11.479-6.596,15.617c-4.25,4.136-9.864,6.316-15.811,6.161
			c-11.672-0.32-21.168-10.395-21.168-22.458v-32.485c0-20.293-7.902-40.224-21.787-55.335v-53.117
			c0-6.017-4.878-10.894-10.894-10.894c-6.015,0-10.894,4.877-10.894,10.894v57.528v18.727c0,5.933-2.342,11.479-6.596,15.617
			c-4.251,4.136-9.846,6.314-15.811,6.161c-11.672-0.32-21.168-10.395-21.168-22.458V230.631c0-55.751,21.961-108.378,61.84-148.184
			c39.199-39.125,90.731-60.66,145.15-60.66c0.122,0,0.247,0,0.37,0c113.918,0.204,206.598,93.053,206.598,206.978v10.894
			C462.977,245.675,467.856,250.552,473.871,250.552z"/>
	</g>
</g>
<g>
	<g>
		<path d="M168.851,163.404c-30.034,0-54.468,24.434-54.468,54.468s24.434,54.468,54.468,54.468s54.468-24.434,54.468-54.468
			S198.885,163.404,168.851,163.404z M168.851,250.552c-18.02,0-32.681-14.661-32.681-32.681s14.661-32.681,32.681-32.681
			s32.681,14.661,32.681,32.681S186.871,250.552,168.851,250.552z"/>
	</g>
</g>
<g>
	<g>
		<path d="M343.148,163.404c-30.034,0-54.468,24.434-54.468,54.468s24.434,54.468,54.468,54.468s54.468-24.434,54.468-54.468
			S373.182,163.404,343.148,163.404z M343.148,250.552c-18.02,0-32.681-14.661-32.681-32.681s14.661-32.681,32.681-32.681
			s32.681,14.661,32.681,32.681S361.168,250.552,343.148,250.552z"/>
	</g>
</g>
<g>
	<g>
		<path d="M285.957,272.339h-59.915c-13.515,0-24.51,10.995-24.51,24.511v6.264c0,19.071,15.516,34.587,34.587,34.587h39.762
			c19.071,0,34.587-15.516,34.587-34.587v-6.264C310.467,283.334,299.471,272.339,285.957,272.339z M288.68,303.114
			c0,7.058-5.742,12.8-12.8,12.8h-39.762c-7.058,0-12.8-5.742-12.8-12.8v-6.264c0-1.501,1.221-2.723,2.723-2.723h59.915
			c1.502,0,2.723,1.222,2.723,2.723V303.114z"/>
	</g>
</g>
</svg>